# xmcd CD database file
#
# Track frame offsets:
#	150
#	15523
#	35119
#	53491
#	71448
#	84573
#	91678
#	112387
#	131245
#	147427
#	167405
#	185205
#	204572
#
# Disc length: 3022 seconds
#
# Revision: 2
# Processed by: cddbd v1.5.2PL0 Copyright (c) Steve Scherf et al.
# Submitted via: CDex 1.72
#
DISCID=b90bcc0d
DTITLE=Drerup, Anders [CDN-09-OVM-Anders Drerup-blues)  - Anders Drerup
DYEAR=2009
DGENRE=Blues
TTITLE0=Down to the Preacher
TTITLE1=Rightful Home
TTITLE2=7:00 AM
TTITLE3=Please Stay Awake
TTITLE4=I'm in Blues
TTITLE5=Is It Wrong
TTITLE6=To See Me Through
TTITLE7=I Don't Speak Italian
TTITLE8=No Call
TTITLE9=She Teases Me
TTITLE10=Bank St. Blues
TTITLE11=Frown in Your Smile
TTITLE12=Moving Song
EXTD=YEAR: 2009
EXTT0=
EXTT1=
EXTT2=
EXTT3=
EXTT4=
EXTT5=
EXTT6=
EXTT7=
EXTT8=
EXTT9=
EXTT10=
EXTT11=
EXTT12=
PLAYORDER=
